<?xml version="1.0" standalone="no"?>
<!DOCTYPE svg PUBLIC "-//W3C//DTD SVG 20010904//EN"
 "http://www.w3.org/TR/2001/REC-SVG-20010904/DTD/svg10.dtd">
<svg version="1.0" xmlns="http://www.w3.org/2000/svg"
 width="386.000000pt" height="386.000000pt" viewBox="0 0 386.000000 386.000000"
 preserveAspectRatio="xMidYMid meet">

<g transform="translate(0.000000,386.000000) scale(0.100000,-0.100000)"
fill="#000000" stroke="none">
<path d="M2449 3062 c-104 -103 -189 -193 -189 -200 0 -7 12 -24 26 -39 14
-14 23 -28 19 -32 -3 -3 -315 -315 -693 -693 l-687 -687 -25 24 c-14 14 -33
25 -41 25 -8 0 -97 -82 -197 -183 -169 -169 -184 -187 -189 -226 l-6 -42 286
-287 c281 -281 287 -287 327 -287 39 0 46 6 230 190 105 104 190 194 190 199
0 6 -12 23 -27 38 l-27 29 691 691 691 691 32 -26 c17 -15 35 -27 39 -27 3 0
93 87 199 193 184 185 192 195 192 232 0 38 -9 48 -283 322 l-282 283 -44 0
c-43 0 -45 -2 -232 -188z m494 -160 l257 -257 -153 -153 -152 -152 -260 260
-260 260 150 150 c82 82 152 150 155 150 3 0 121 -116 263 -258z m-570 -504
c-164 -164 -167 -168 -166 -208 2 -34 -1 -40 -15 -36 -87 26 -112 28 -137 12
-29 -19 -32 -50 -13 -121 7 -24 10 -47 7 -49 -3 -3 -33 1 -68 10 -57 13 -66
13 -87 -1 -27 -18 -31 -50 -13 -121 6 -25 10 -47 7 -49 -2 -2 -32 2 -67 11
-57 13 -66 13 -87 -1 -27 -17 -30 -50 -13 -124 5 -24 8 -45 6 -48 -2 -2 -31 3
-63 10 -102 24 -131 -4 -107 -102 17 -75 18 -73 -23 -65 -35 6 -37 5 -202
-160 -92 -91 -172 -166 -177 -166 -13 0 -155 142 -155 155 0 5 309 319 687
697 l688 688 82 -82 83 -83 -167 -167z m-300 -750 l-693 -693 -80 80 -80 80
152 152 152 152 65 -2 c59 -2 66 0 77 21 9 19 9 37 -2 84 -8 34 -12 63 -10 65
2 3 28 -1 58 -7 108 -24 135 1 112 102 -8 34 -12 63 -10 65 2 3 28 -1 58 -7
108 -24 138 3 112 104 -8 32 -13 60 -10 63 2 3 29 -1 59 -7 106 -24 137 6 111
105 -8 31 -13 60 -10 62 3 3 32 0 64 -7 100 -21 133 5 112 88 l-11 46 153 153
153 153 80 -80 80 -80 -692 -692z m-950 -566 l257 -257 -150 -150 -150 -150
-260 260 -260 260 147 147 c81 82 150 148 153 148 3 0 121 -116 263 -258z"/>
</g>
</svg>
